<svg xmlns="http://www.w3.org/2000/svg" viewBox="0 0 24 24">    <path d="M 3 3 C 1.895 3 1 3.895 1 5 L 1 19 C 1 20.105 1.895 21 3 21 L 11 21 L 11 19.384766 C 11 17.496766 12.141266 15.895406 13.947266 14.941406 C 13.355266 14.119406 13 13.112 13 12 C 13 10.37 13.792 8.9354375 15 8.0234375 L 15 5 C 15 3.895 14.105 3 13 3 L 3 3 z M 5.5 7 L 6.5 7 C 6.776 7 7 7.224 7 7.5 L 7 8.5 C 7 8.776 6.776 9 6.5 9 L 5.5 9 C 5.224 9 5 8.776 5 8.5 L 5 7.5 C 5 7.224 5.224 7 5.5 7 z M 9.5 7 L 10.5 7 C 10.776 7 11 7.224 11 7.5 L 11 8.5 C 11 8.776 10.776 9 10.5 9 L 9.5 9 C 9.224 9 9 8.776 9 8.5 L 9 7.5 C 9 7.224 9.224 7 9.5 7 z M 18 9 A 3 3 0 0 0 15 12 A 3 3 0 0 0 18 15 A 3 3 0 0 0 21 12 A 3 3 0 0 0 18 9 z M 5.5 11 L 6.5 11 C 6.776 11 7 11.224 7 11.5 L 7 12.5 C 7 12.776 6.776 13 6.5 13 L 5.5 13 C 5.224 13 5 12.776 5 12.5 L 5 11.5 C 5 11.224 5.224 11 5.5 11 z M 9.5 11 L 10.5 11 C 10.776 11 11 11.224 11 11.5 L 11 12.5 C 11 12.776 10.776 13 10.5 13 L 9.5 13 C 9.224 13 9 12.776 9 12.5 L 9 11.5 C 9 11.224 9.224 11 9.5 11 z M 5.5 15 L 6.5 15 C 6.776 15 7 15.224 7 15.5 L 7 16.5 C 7 16.776 6.776 17 6.5 17 L 5.5 17 C 5.224 17 5 16.776 5 16.5 L 5 15.5 C 5 15.224 5.224 15 5.5 15 z M 9.5 15 L 10.5 15 C 10.776 15 11 15.224 11 15.5 L 11 16.5 C 11 16.776 10.776 17 10.5 17 L 9.5 17 C 9.224 17 9 16.776 9 16.5 L 9 15.5 C 9 15.224 9.224 15 9.5 15 z M 18 16 C 15.149 16 13 17.455766 13 19.384766 L 13 20 C 13 20.552 13.448 21 14 21 L 22 21 C 22.552 21 23 20.552 23 20 L 23 19.384766 C 23 17.455766 20.851 16 18 16 z"></path></svg>