<svg xmlns="http://www.w3.org/2000/svg" viewBox="0 0 50 50"><path d="M 31 3 C 18.875 3 9 12.875 9 25 C 9 37.125 18.875 47 31 47 C 34.128906 47 37.109375 46.335938 39.800781 45.15625 C 40.53125 44.839844 41 44.121094 41 43.324219 C 41 42.53125 40.53125 41.808594 39.800781 41.492188 C 33.449219 38.714844 29 32.394531 29 25 C 29 17.605469 33.449219 11.285156 39.800781 8.507813 C 40.53125 8.191406 41 7.46875 41 6.675781 C 41 5.878906 40.53125 5.160156 39.800781 4.84375 C 37.109375 3.664063 34.128906 3 31 3 Z M 31 7 C 32.09375 7 33.148438 7.148438 34.1875 7.335938 C 28.679688 11.335938 25 17.6875 25 25 C 25 32.3125 28.679688 38.664063 34.1875 42.664063 C 33.148438 42.851563 32.09375 43 31 43 C 21.035156 43 13 34.964844 13 25 C 13 15.035156 21.035156 7 31 7 Z"></path></svg>