<svg xmlns="http://www.w3.org/2000/svg" viewBox="0 0 100 100"><path fill="#ee3e54" d="M13 27A2 2 0 1 0 13 31A2 2 0 1 0 13 27Z"></path><path fill="#f1bc19" d="M77 12A1 1 0 1 0 77 14A1 1 0 1 0 77 12Z"></path><path fill="#fce0a2" d="M50 13A37 37 0 1 0 50 87A37 37 0 1 0 50 13Z"></path><path fill="#f1bc19" d="M83 11A4 4 0 1 0 83 19A4 4 0 1 0 83 11Z"></path><path fill="#ee3e54" d="M87 22A2 2 0 1 0 87 26A2 2 0 1 0 87 22Z"></path><path fill="#fbcd59" d="M81 74A2 2 0 1 0 81 78 2 2 0 1 0 81 74zM15 59A4 4 0 1 0 15 67 4 4 0 1 0 15 59z"></path><path fill="#ee3e54" d="M25 85A2 2 0 1 0 25 89A2 2 0 1 0 25 85Z"></path><path fill="#fff" d="M18.5 51A2.5 2.5 0 1 0 18.5 56A2.5 2.5 0 1 0 18.5 51Z"></path><path fill="#f1bc19" d="M21 66A1 1 0 1 0 21 68A1 1 0 1 0 21 66Z"></path><path fill="#fff" d="M80 33A1 1 0 1 0 80 35A1 1 0 1 0 80 33Z"></path><g><path fill="#f15b6c" d="M26.729,67.3c-0.527,0-0.999-0.271-1.262-0.728s-0.265-1.001-0.002-1.457l23.271-40.509 c0.263-0.458,0.736-0.731,1.265-0.731s1.001,0.273,1.265,0.731l23.271,40.509c0.262,0.456,0.261,1.001-0.002,1.457 S73.797,67.3,73.271,67.3H26.729z"></path><path fill="#472b29" d="M50,24.575c0.132,0,0.46,0.037,0.658,0.381l23.271,40.508c0.197,0.342,0.065,0.644-0.001,0.758 c-0.066,0.114-0.262,0.379-0.656,0.379H26.729c-0.395,0-0.591-0.265-0.656-0.379c-0.066-0.114-0.198-0.416-0.001-0.758 l23.271-40.508C49.54,24.612,49.868,24.575,50,24.575 M50,23.175c-0.728,0-1.457,0.361-1.872,1.083L24.858,64.766 C24.031,66.205,25.07,68,26.729,68h46.541c1.66,0,2.698-1.795,1.872-3.234L51.872,24.258C51.457,23.536,50.728,23.175,50,23.175 L50,23.175z"></path></g><g><path fill="#fef6aa" d="M67.96,62.731c-0.052,0.092-0.145,0.144-0.249,0.144H32.289c-0.104,0-0.197-0.052-0.249-0.144 c-0.052-0.087-0.052-0.196-0.006-0.288l17.711-31.308c0.104-0.179,0.405-0.179,0.51,0l17.711,31.308 C68.012,62.535,68.012,62.644,67.96,62.731z"></path></g><g><path fill="#472b29" d="M67.711 63H32.289c-.288 0-.543-.148-.684-.396-.132-.216-.142-.512-.016-.759.126-.245.428-.343.673-.218.149.077.244.218.267.373h34.82l-9.887-17.257c-.137-.24-.054-.545.186-.683.238-.135.544-.054.683.186L68.4 61.824c.137.268.127.563-.013.794C68.254 62.852 67.999 63 67.711 63zM67.521 62.3h.01H67.521zM56.423 42.407c-.173 0-.342-.09-.435-.251l-1.578-2.757c-.137-.24-.054-.545.186-.683.242-.138.545-.054.683.186l1.578 2.757c.137.24.054.545-.186.683C56.592 42.386 56.507 42.407 56.423 42.407zM34.422 58.399c-.084 0-.169-.021-.248-.066-.24-.137-.323-.443-.186-.683l15.322-26.767c.284-.479 1.098-.472 1.374-.006l3.374 5.883c.138.239.055.545-.185.682-.238.137-.545.055-.682-.185L50 31.693 34.857 58.148C34.765 58.309 34.596 58.399 34.422 58.399z"></path></g><g><path fill="#f15b6c" d="M50 55.111A1.939 1.939 0 1 0 50 58.989A1.939 1.939 0 1 0 50 55.111Z"></path><path fill="#472b29" d="M50,59.239c-1.207,0-2.189-0.982-2.189-2.189s0.982-2.189,2.189-2.189s2.189,0.982,2.189,2.189 S51.207,59.239,50,59.239z M50,55.361c-0.931,0-1.689,0.758-1.689,1.689s0.758,1.689,1.689,1.689s1.689-0.758,1.689-1.689 S50.931,55.361,50,55.361z"></path></g><g><path fill="#f15b6c" d="M48.712,40.563h2.575c0.363,0,0.655,0.273,0.646,0.605L51.64,51.862 c-0.009,0.32-0.295,0.576-0.646,0.576h-1.989c-0.351,0-0.637-0.255-0.646-0.576l-0.293-10.694 C48.057,40.836,48.349,40.563,48.712,40.563z"></path><path fill="#472b29" d="M50.994,52.688h-1.989c-0.49,0-0.883-0.36-0.896-0.819l-0.293-10.694 c-0.006-0.218,0.078-0.427,0.234-0.588c0.17-0.174,0.411-0.274,0.663-0.274h2.575c0.251,0,0.493,0.1,0.663,0.274 c0.157,0.161,0.239,0.37,0.233,0.588l-0.292,10.694C51.878,52.328,51.484,52.688,50.994,52.688z M48.712,40.813 c-0.117,0-0.228,0.045-0.304,0.123c-0.062,0.063-0.095,0.144-0.092,0.226l0.293,10.694c0.005,0.183,0.183,0.333,0.396,0.333h1.989 c0.214,0,0.392-0.149,0.396-0.333l0.292-10.694c0.002-0.082-0.03-0.162-0.092-0.226c-0.076-0.078-0.187-0.123-0.304-0.123H48.712z"></path></g></svg>