<svg xmlns="http://www.w3.org/2000/svg" viewBox="0 0 50 50">    <path d="M25,2C12.318,2,2,12.318,2,25s10.318,23,23,23s23-10.318,23-23S37.682,2,25,2z M26.797,36.935 c0,0.216-0.144,0.358-0.358,0.358h-2.726c-0.217,0-0.359-0.143-0.359-0.358v-3.084c0-0.215,0.143-0.358,0.359-0.358h2.726 c0.215,0,0.358,0.144,0.358,0.358V36.935z M29.952,23.268l-2.403,3.3c-0.717,0.968-0.933,1.47-0.933,2.689v1.147 c0,0.215-0.143,0.358-0.358,0.358h-2.367c-0.215,0.004-0.358-0.14-0.358-0.355v-1.47c0-1.436,0.322-2.188,1.075-3.229l2.404-3.3 c1.254-1.721,1.684-2.546,1.684-3.766c0-2.044-1.434-3.335-3.479-3.335c-2.008,0-3.299,1.219-3.729,3.407 c-0.036,0.215-0.179,0.323-0.395,0.287l-2.259-0.395c-0.216-0.036-0.323-0.179-0.288-0.395c0.539-3.443,3.014-5.703,6.744-5.703 c3.872,0,6.49,2.546,6.49,6.097C31.78,20.327,31.172,21.582,29.952,23.268z"></path></svg>