<svg xmlns="http://www.w3.org/2000/svg" viewBox="0 0 30 30"><path d="M 16 3 A 1.0001 1.0001 0 1 0 16 5 L 18 5 C 18.554545 5 19 5.4454545 19 6 L 19 24 C 19 24.554545 18.554545 25 18 25 L 16 25 A 1.0001 1.0001 0 1 0 16 27 L 18 27 C 18.76881 27 19.466695 26.695812 20 26.212891 C 20.533305 26.695812 21.23119 27 22 27 L 24 27 A 1.0001 1.0001 0 1 0 24 25 L 22 25 C 21.445455 25 21 24.554545 21 24 L 21 6 C 21 5.4454545 21.445455 5 22 5 L 24 5 A 1.0001 1.0001 0 1 0 24 3 L 22 3 C 21.23119 3 20.533305 3.3041882 20 3.7871094 C 19.466695 3.3041882 18.76881 3 18 3 L 16 3 z M 4 8 A 1.0001 1.0001 0 0 0 3 9 L 3 21 A 1.0001 1.0001 0 0 0 4 22 L 17 22 L 17 20 L 5 20 L 5 10 L 17 10 L 17 8 L 4 8 z M 23 8 L 23 10 L 25 10 L 25 20 L 23 20 L 23 22 L 26 22 A 1.0001 1.0001 0 0 0 27 21 L 27 9 A 1.0001 1.0001 0 0 0 26 8 L 23 8 z M 7 12 L 7 18 L 15 18 L 15 12 L 7 12 z"></path></svg>