<svg xmlns="http://www.w3.org/2000/svg" viewBox="0 0 30 30">    <path d="M 6 3 C 4.895 3 4 3.895 4 5 L 4 9 C 4 10.105 4.895 11 6 11 L 24 11 C 25.105 11 26 10.105 26 9 L 26 5 C 26 3.895 25.105 3 24 3 L 6 3 z M 7 6 C 7.552 6 8 6.448 8 7 C 8 7.552 7.552 8 7 8 C 6.448 8 6 7.552 6 7 C 6 6.448 6.448 6 7 6 z M 11 6 C 11.552 6 12 6.448 12 7 C 12 7.552 11.552 8 11 8 C 10.448 8 10 7.552 10 7 C 10 6.448 10.448 6 11 6 z M 15 6 C 15.552 6 16 6.448 16 7 C 16 7.552 15.552 8 15 8 C 14.448 8 14 7.552 14 7 C 14 6.448 14.448 6 15 6 z M 19 6 C 19.552 6 20 6.448 20 7 C 20 7.552 19.552 8 19 8 C 18.448 8 18 7.552 18 7 C 18 6.448 18.448 6 19 6 z M 23 6 C 23.552 6 24 6.448 24 7 C 24 7.552 23.552 8 23 8 C 22.448 8 22 7.552 22 7 C 22 6.448 22.448 6 23 6 z M 15 13 C 11.141 13 8 16.14 8 20 C 8 23.86 11.141 27 15 27 C 15.553 27 16 26.552 16 26 C 16 25.448 15.553 25 15 25 C 12.243 25 10 22.757 10 20 C 10 17.243 12.243 15 15 15 C 17.757 15 20 17.243 20 20 C 20 20.851 19.791578 21.664578 19.392578 22.392578 L 18 21 L 18 25 L 22 25 L 20.830078 23.830078 C 21.582078 22.690078 22 21.386 22 20 C 22 16.14 18.859 13 15 13 z"></path></svg>