<svg xmlns="http://www.w3.org/2000/svg" viewBox="0 0 24 24"><path d="M 6 0 C 4.8969727 0 4 0.8969727 4 2 L 4 22 C 4 23.103027 4.8969727 24 6 24 L 18 24 C 19.103027 24 20 23.103027 20 22 L 20 2 C 20 0.8969727 19.103027 0 18 0 L 6 0 z M 6 2 L 18 2 L 18 19 L 6 19 L 6 2 z M 11.5 3 C 11.223633 3 11 3.2236328 11 3.5 C 11 3.7763672 11.223633 4 11.5 4 L 12.5 4 C 12.776367 4 13 3.7763672 13 3.5 C 13 3.2236328 12.776367 3 12.5 3 L 11.5 3 z M 16.5 3 A 0.5 0.5 0 0 0 16.5 4 A 0.5 0.5 0 0 0 16.5 3 z M 7.5 6 C 7.2236328 6 7 6.2236328 7 6.5 L 7 9.5 C 7 9.7763672 7.2236328 10 7.5 10 L 10.5 10 C 10.776367 10 11 9.7763672 11 9.5 L 11 6.5 C 11 6.2236328 10.776367 6 10.5 6 L 7.5 6 z M 13.5 6 C 13.223633 6 13 6.2236328 13 6.5 L 13 9.5 C 13 9.7763672 13.223633 10 13.5 10 L 16.5 10 C 16.776367 10 17 9.7763672 17 9.5 L 17 6.5 C 17 6.2236328 16.776367 6 16.5 6 L 13.5 6 z M 7.5 12 C 7.2236328 12 7 12.223633 7 12.5 L 7 15.5 C 7 15.776367 7.2236328 16 7.5 16 L 10.5 16 C 10.776367 16 11 15.776367 11 15.5 L 11 12.5 C 11 12.223633 10.776367 12 10.5 12 L 7.5 12 z M 13.5 12 C 13.223633 12 13 12.223633 13 12.5 L 13 15.5 C 13 15.776367 13.223633 16 13.5 16 L 16.5 16 C 16.776367 16 17 15.776367 17 15.5 L 17 12.5 C 17 12.223633 16.776367 12 16.5 12 L 13.5 12 z M 10.5 21 L 13.5 21 C 13.776367 21 14 21.223633 14 21.5 C 14 21.776367 13.776367 22 13.5 22 L 10.5 22 C 10.223633 22 10 21.776367 10 21.5 C 10 21.223633 10.223633 21 10.5 21 z"></path></svg>